STARTFONT 2.1
COMMENT $XConsortium: lubB18.bdf,v 1.10 94/04/02 16:00:28 gildea Exp $
COMMENT  (c) Copyright Bigelow & Holmes 1986, 1985. Lucida is a registered
COMMENT  trademark of Bigelow & Holmes. See LEGAL NOTICE file for terms 
COMMENT  of the license. 
COMMENT  
COMMENT  Translation to ISO8859-2 by Cub Soft;  Petr.Kolar@vslib.cz
COMMENT  
FONT -B&H-LucidaBright-DemiBold-R-Normal--18-180-75-75-P-107-ISO8859-2
SIZE 18 72 72
FONTBOUNDINGBOX 31 20 -11 -3
STARTPROPERTIES 20
COMMENT Begin LogicalFontDescription
FONTNAME_REGISTRY ""
FOUNDRY "B&H"
FAMILY_NAME "LucidaBright"
WEIGHT_NAME "DemiBold"
SLANT "R"
SETWIDTH_NAME "Normal"
ADD_STYLE_NAME ""
PIXEL_SIZE 18
POINT_SIZE 180
RESOLUTION_X 75
RESOLUTION_Y 75
SPACING "P"
AVERAGE_WIDTH 107
CHARSET_REGISTRY "ISO8859"
CHARSET_ENCODING "2"
COMMENT END LogicalFontDescription
FONT_ASCENT 16
FONT_DESCENT 4
DEFAULT_CHAR 0
COPYRIGHT "Copyright Bigelow & Holmes 1986, 1985., Copyright 1996 Cub Soft"
FACE_NAME "Lucida Bright Demibold"
ENDPROPERTIES
CHARS 191
STARTCHAR space
ENCODING 32
SWIDTH 333 0
DWIDTH 6 0
BBX 1 1 0 0
BITMAP
00
ENDCHAR
STARTCHAR exclam
ENCODING 33
SWIDTH 265 0
DWIDTH 5 0
BBX 3 13 1 0
BITMAP
e0
e0
e0
e0
e0
e0
40
40
40
00
e0
e0
e0
ENDCHAR
STARTCHAR quotedbl
ENCODING 34
SWIDTH 461 0
DWIDTH 8 0
BBX 7 5 1 8
BITMAP
ee
ee
ee
44
44
ENDCHAR
STARTCHAR numbersign
ENCODING 35
SWIDTH 663 0
DWIDTH 12 0
BBX 11 13 0 0
BITMAP
0480
0880
0880
0880
7fe0
1100
1100
1100
ffc0
2200
2200
2200
2400
ENDCHAR
STARTCHAR dollar
ENCODING 36
SWIDTH 623 0
DWIDTH 11 0
BBX 8 16 2 -1
BITMAP
08
08
7f
e9
e9
e8
f8
78
1c
0e
0f
0f
8f
cf
fe
08
ENDCHAR
STARTCHAR percent
ENCODING 37
SWIDTH 759 0
DWIDTH 14 0
BBX 13 13 0 0
BITMAP
7818
cc20
cc60
ccc0
cc80
cd00
7a00
04f0
0998
1998
3198
2198
c0f0
ENDCHAR
STARTCHAR ampersand
ENCODING 38
SWIDTH 765 0
DWIDTH 14 0
BBX 13 13 1 0
BITMAP
1f00
3b80
3b80
3b80
1b00
1c00
7c78
6e30
e720
e760
e3c0
71e0
3ef8
ENDCHAR
STARTCHAR apostrophe
ENCODING 39
SWIDTH 265 0
DWIDTH 5 0
BBX 3 5 1 8
BITMAP
e0
e0
60
60
c0
ENDCHAR
STARTCHAR parenleft
ENCODING 40
SWIDTH 327 0
DWIDTH 6 0
BBX 5 16 0 -3
BITMAP
08
10
30
60
60
e0
e0
e0
e0
e0
e0
60
60
30
10
08
ENDCHAR
STARTCHAR parenright
ENCODING 41
SWIDTH 327 0
DWIDTH 6 0
BBX 5 16 0 -3
BITMAP
80
40
60
30
30
38
38
38
38
38
38
30
30
60
40
80
ENDCHAR
STARTCHAR asterisk
ENCODING 42
SWIDTH 434 0
DWIDTH 8 0
BBX 7 7 0 6
BITMAP
10
52
d6
6c
28
6c
28
ENDCHAR
STARTCHAR plus
ENCODING 43
SWIDTH 623 0
DWIDTH 11 0
BBX 11 11 0 0
BITMAP
0400
0400
0400
0400
0400
ffe0
0400
0400
0400
0400
0400
ENDCHAR
STARTCHAR comma
ENCODING 44
SWIDTH 265 0
DWIDTH 5 0
BBX 3 6 1 -3
BITMAP
e0
e0
e0
60
60
c0
ENDCHAR
STARTCHAR minus
ENCODING 45
SWIDTH 623 0
DWIDTH 11 0
BBX 10 1 1 5
BITMAP
ffc0
ENDCHAR
STARTCHAR period
ENCODING 46
SWIDTH 265 0
DWIDTH 5 0
BBX 3 3 1 0
BITMAP
e0
e0
e0
ENDCHAR
STARTCHAR slash
ENCODING 47
SWIDTH 527 0
DWIDTH 9 0
BBX 10 16 0 -3
BITMAP
00c0
0080
0100
0100
0200
0200
0400
0400
0800
0800
1000
1000
2000
2000
4000
c000
ENDCHAR
STARTCHAR zero
ENCODING 48
SWIDTH 623 0
DWIDTH 11 0
BBX 10 13 1 0
BITMAP
1e00
3300
7380
6180
e1c0
e1c0
e1c0
e1c0
e1c0
6180
7380
3300
1e00
ENDCHAR
STARTCHAR one
ENCODING 49
SWIDTH 623 0
DWIDTH 11 0
BBX 7 13 2 0
BITMAP
f8
38
38
38
38
38
38
38
38
38
38
38
fe
ENDCHAR
STARTCHAR two
ENCODING 50
SWIDTH 623 0
DWIDTH 11 0
BBX 9 13 1 0
BITMAP
7e00
c700
8380
0380
0380
0700
0600
0800
3000
6000
7f80
ff80
ff80
ENDCHAR
STARTCHAR three
ENCODING 51
SWIDTH 623 0
DWIDTH 11 0
BBX 9 13 1 0
BITMAP
fe00
c700
8380
0380
0300
0600
7e00
0700
0380
0380
8380
8700
fe00
ENDCHAR
STARTCHAR four
ENCODING 52
SWIDTH 623 0
DWIDTH 11 0
BBX 11 13 0 0
BITMAP
0380
0780
0f80
1b80
1380
2380
4380
ffe0
ffe0
0380
0380
0380
07e0
ENDCHAR
STARTCHAR five
ENCODING 53
SWIDTH 623 0
DWIDTH 11 0
BBX 8 13 2 0
BITMAP
ff
ff
80
80
80
fc
1e
0f
07
07
87
8e
fc
ENDCHAR
STARTCHAR six
ENCODING 54
SWIDTH 623 0
DWIDTH 11 0
BBX 10 13 1 0
BITMAP
1f80
3880
7080
6000
e000
ef00
f380
e1c0
e1c0
e1c0
61c0
3380
1f00
ENDCHAR
STARTCHAR seven
ENCODING 55
SWIDTH 623 0
DWIDTH 11 0
BBX 9 13 2 0
BITMAP
ff80
ff80
ff80
0100
0200
0600
0c00
1800
1800
3000
3000
7000
7000
ENDCHAR
STARTCHAR eight
ENCODING 56
SWIDTH 623 0
DWIDTH 11 0
BBX 10 13 1 0
BITMAP
3f00
73c0
e1c0
e1c0
f180
3e00
1f00
6780
e3c0
e1c0
e1c0
7380
3f00
ENDCHAR
STARTCHAR nine
ENCODING 57
SWIDTH 623 0
DWIDTH 11 0
BBX 10 13 1 0
BITMAP
3e00
7300
e180
e1c0
e1c0
e1c0
73c0
3dc0
01c0
0180
4380
4700
7e00
ENDCHAR
STARTCHAR colon
ENCODING 58
SWIDTH 265 0
DWIDTH 5 0
BBX 3 9 1 0
BITMAP
e0
e0
e0
00
00
00
e0
e0
e0
ENDCHAR
STARTCHAR semicolon
ENCODING 59
SWIDTH 265 0
DWIDTH 5 0
BBX 3 12 1 -3
BITMAP
e0
e0
e0
00
00
00
00
e0
e0
60
60
c0
ENDCHAR
STARTCHAR less
ENCODING 60
SWIDTH 623 0
DWIDTH 11 0
BBX 10 11 1 0
BITMAP
0040
00c0
0300
0c00
3000
c000
3000
0c00
0300
00c0
0040
ENDCHAR
STARTCHAR equal
ENCODING 61
SWIDTH 623 0
DWIDTH 11 0
BBX 10 4 1 3
BITMAP
ffc0
0000
0000
ffc0
ENDCHAR
STARTCHAR greater
ENCODING 62
SWIDTH 623 0
DWIDTH 11 0
BBX 10 11 1 0
BITMAP
8000
c000
3000
0c00
0300
00c0
0300
0c00
3000
c000
8000
ENDCHAR
STARTCHAR question
ENCODING 63
SWIDTH 505 0
DWIDTH 9 0
BBX 8 13 1 0
BITMAP
fc
cf
87
07
06
0c
08
18
38
00
38
38
38
ENDCHAR
STARTCHAR at
ENCODING 64
SWIDTH 861 0
DWIDTH 15 0
BBX 14 13 1 0
BITMAP
07e0
0c10
3008
6384
4c64
8cc4
98c4
99cc
99c8
8ef0
4000
2080
1f00
ENDCHAR
STARTCHAR A
ENCODING 65
SWIDTH 795 0
DWIDTH 14 0
BBX 14 13 0 0
BITMAP
0300
0300
0780
0780
0fc0
09c0
09e0
10e0
1ff0
2070
2038
4038
e07c
ENDCHAR
STARTCHAR B
ENCODING 66
SWIDTH 639 0
DWIDTH 11 0
BBX 10 13 1 0
BITMAP
ff00
73c0
71c0
71c0
71c0
7300
7e00
7380
71c0
71c0
71c0
7380
ff00
ENDCHAR
STARTCHAR C
ENCODING 67
SWIDTH 711 0
DWIDTH 13 0
BBX 11 13 1 0
BITMAP
0fe0
3860
7020
7000
e000
e000
e000
e000
e000
7000
7000
3820
0fc0
ENDCHAR
STARTCHAR D
ENCODING 68
SWIDTH 794 0
DWIDTH 14 0
BBX 13 13 0 0
BITMAP
ff80
70e0
7070
7038
7038
7038
7038
7038
7038
7030
7070
70e0
ff80
ENDCHAR
STARTCHAR E
ENCODING 69
SWIDTH 601 0
DWIDTH 11 0
BBX 10 13 0 0
BITMAP
ff80
7080
7000
7000
7000
7100
7f00
7100
7000
7000
7040
70c0
ffc0
ENDCHAR
STARTCHAR F
ENCODING 70
SWIDTH 584 0
DWIDTH 11 0
BBX 9 13 1 0
BITMAP
ff80
7080
7080
7000
7000
7100
7f00
7100
7000
7000
7000
7000
fc00
ENDCHAR
STARTCHAR G
ENCODING 71
SWIDTH 753 0
DWIDTH 14 0
BBX 12 13 1 0
BITMAP
0fe0
3860
7020
7000
e000
e000
e000
e1f0
e0e0
60e0
70e0
38e0
0fe0
ENDCHAR
STARTCHAR H
ENCODING 72
SWIDTH 798 0
DWIDTH 14 0
BBX 13 13 1 0
BITMAP
f8f8
7070
7070
7070
7070
7070
7ff0
7070
7070
7070
7070
7070
f8f8
ENDCHAR
STARTCHAR I
ENCODING 73
SWIDTH 349 0
DWIDTH 6 0
BBX 5 13 1 0
BITMAP
f8
70
70
70
70
70
70
70
70
70
70
70
f8
ENDCHAR
STARTCHAR J
ENCODING 74
SWIDTH 452 0
DWIDTH 8 0
BBX 8 16 0 -3
BITMAP
1f
0e
0e
0e
0e
0e
0e
0e
0e
0e
0e
0e
0e
8e
8c
f8
ENDCHAR
STARTCHAR K
ENCODING 75
SWIDTH 747 0
DWIDTH 13 0
BBX 13 13 0 0
BITMAP
f8f0
7060
7080
7100
7200
7400
7e00
7f00
7780
73c0
71e0
70f0
f9f8
ENDCHAR
STARTCHAR L
ENCODING 76
SWIDTH 584 0
DWIDTH 11 0
BBX 10 13 0 0
BITMAP
f800
7000
7000
7000
7000
7000
7000
7000
7000
7000
7040
7040
ffc0
ENDCHAR
STARTCHAR M
ENCODING 77
SWIDTH 904 0
DWIDTH 16 0
BBX 15 13 1 0
BITMAP
f81e
783c
783c
7c3c
5c5c
5e5c
4e9c
4e9c
471c
471c
421c
401c
e03e
ENDCHAR
STARTCHAR N
ENCODING 78
SWIDTH 788 0
DWIDTH 14 0
BBX 12 13 1 0
BITMAP
f070
7020
7820
7c20
5c20
5e20
4f20
47a0
43a0
43e0
41e0
40e0
e060
ENDCHAR
STARTCHAR O
ENCODING 79
SWIDTH 810 0
DWIDTH 15 0
BBX 13 13 1 0
BITMAP
0f80
38e0
7070
6030
e038
e038
e038
e038
e038
6030
7070
38e0
0f80
ENDCHAR
STARTCHAR P
ENCODING 80
SWIDTH 614 0
DWIDTH 11 0
BBX 10 13 1 0
BITMAP
ff00
7180
71c0
71c0
71c0
71c0
7380
7e00
7000
7000
7000
7000
fc00
ENDCHAR
STARTCHAR Q
ENCODING 81
SWIDTH 810 0
DWIDTH 15 0
BBX 15 16 1 -3
BITMAP
0f80
38e0
7070
6030
e038
e038
e038
e038
e038
6038
7070
38e0
0f80
00f0
003e
0008
ENDCHAR
STARTCHAR R
ENCODING 82
SWIDTH 720 0
DWIDTH 13 0
BBX 12 13 1 0
BITMAP
ff00
7180
71c0
71c0
71c0
7380
7f00
7700
7780
73c0
71c0
71e0
f8f0
ENDCHAR
STARTCHAR S
ENCODING 83
SWIDTH 556 0
DWIDTH 10 0
BBX 9 13 1 0
BITMAP
3f00
7100
e100
e000
f000
7c00
3f00
0f80
0780
0380
8380
c700
fe00
ENDCHAR
STARTCHAR T
ENCODING 84
SWIDTH 714 0
DWIDTH 13 0
BBX 13 13 0 0
BITMAP
fff8
c708
8708
0700
0700
0700
0700
0700
0700
0700
0700
0700
1fc0
ENDCHAR
STARTCHAR U
ENCODING 85
SWIDTH 747 0
DWIDTH 13 0
BBX 12 13 1 0
BITMAP
f870
7020
7020
7020
7020
7020
7020
7020
7020
7020
7020
3840
1f80
ENDCHAR
STARTCHAR V
ENCODING 86
SWIDTH 753 0
DWIDTH 14 0
BBX 14 13 0 0
BITMAP
fc3c
7818
3810
3c10
1c20
1c20
0e40
0e40
0fc0
0780
0780
0300
0300
ENDCHAR
STARTCHAR W
ENCODING 87
SWIDTH 955 0
DWIDTH 17 0
BBX 17 13 0 0
BITMAP
f8c380
70c100
70e200
79e200
39e200
39f400
3f7400
1e7400
1e7800
1e3800
0c3800
0c3800
0c1000
ENDCHAR
STARTCHAR X
ENCODING 88
SWIDTH 702 0
DWIDTH 13 0
BBX 13 13 0 0
BITMAP
fc78
7830
3c20
1c40
1e80
0f80
0780
0f80
0bc0
11e0
20e0
60f0
f1f8
ENDCHAR
STARTCHAR Y
ENCODING 89
SWIDTH 717 0
DWIDTH 13 0
BBX 13 13 0 0
BITMAP
fc38
7830
3820
3c40
1e40
0e80
0f00
0700
0700
0700
0700
0700
0f80
ENDCHAR
STARTCHAR Z
ENCODING 90
SWIDTH 639 0
DWIDTH 11 0
BBX 10 13 1 0
BITMAP
7fc0
43c0
4380
0780
0f00
0e00
1e00
1c00
3c00
7800
7040
f0c0
ffc0
ENDCHAR
STARTCHAR bracketleft
ENCODING 91
SWIDTH 327 0
DWIDTH 6 0
BBX 5 16 1 -3
BITMAP
f8
e0
e0
e0
e0
e0
e0
e0
e0
e0
e0
e0
e0
e0
e0
f8
ENDCHAR
STARTCHAR backslash
ENCODING 92
SWIDTH 527 0
DWIDTH 9 0
BBX 9 16 0 -3
BITMAP
c000
4000
4000
2000
2000
1000
1000
0800
0800
0400
0400
0200
0200
0100
0100
0080
ENDCHAR
STARTCHAR bracketright
ENCODING 93
SWIDTH 327 0
DWIDTH 6 0
BBX 5 16 0 -3
BITMAP
f8
38
38
38
38
38
38
38
38
38
38
38
38
38
38
f8
ENDCHAR
STARTCHAR asciicircum
ENCODING 94
SWIDTH 623 0
DWIDTH 11 0
BBX 10 11 1 2
BITMAP
0400
0c00
0c00
0c00
1200
1200
2100
2100
4080
4080
8040
ENDCHAR
STARTCHAR underscore
ENCODING 95
SWIDTH 500 0
DWIDTH 9 0
BBX 7 1 1 -1
BITMAP
fe
ENDCHAR
STARTCHAR grave
ENCODING 96
SWIDTH 617 0
DWIDTH 11 0
BBX 4 3 3 10
BITMAP
c0
60
30
ENDCHAR
STARTCHAR a
ENCODING 97
SWIDTH 556 0
DWIDTH 10 0
BBX 10 9 0 0
BITMAP
3e00
6380
4380
0380
7f80
f380
e380
e380
7dc0
ENDCHAR
STARTCHAR b
ENCODING 98
SWIDTH 640 0
DWIDTH 11 0
BBX 11 13 0 0
BITMAP
f000
7000
7000
7000
7380
77c0
78e0
70e0
70e0
70e0
70e0
71c0
7f80
ENDCHAR
STARTCHAR c
ENCODING 99
SWIDTH 541 0
DWIDTH 10 0
BBX 8 9 1 0
BITMAP
3f
71
e1
e0
e0
e0
e0
70
3f
ENDCHAR
STARTCHAR d
ENCODING 100
SWIDTH 652 0
DWIDTH 12 0
BBX 11 13 1 0
BITMAP
03c0
01c0
01c0
01c0
3fc0
71c0
e1c0
e1c0
e1c0
e1c0
e3c0
7dc0
39e0
ENDCHAR
STARTCHAR e
ENCODING 101
SWIDTH 568 0
DWIDTH 10 0
BBX 9 9 0 0
BITMAP
3e00
6300
e380
e380
ff80
e000
e000
7080
1f80
ENDCHAR
STARTCHAR f
ENCODING 102
SWIDTH 416 0
DWIDTH 7 0
BBX 7 13 1 0
BITMAP
3e
72
72
70
fc
70
70
70
70
70
70
70
f8
ENDCHAR
STARTCHAR g
ENCODING 103
SWIDTH 599 0
DWIDTH 11 0
BBX 11 12 0 -3
BITMAP
1fe0
73e0
7380
7380
3380
1f00
3000
7f80
3fc0
e1c0
e180
7f00
ENDCHAR
STARTCHAR h
ENCODING 104
SWIDTH 654 0
DWIDTH 12 0
BBX 11 13 1 0
BITMAP
f000
7000
7000
7000
7380
77c0
79c0
71c0
71c0
71c0
71c0
71c0
fbe0
ENDCHAR
STARTCHAR i
ENCODING 105
SWIDTH 325 0
DWIDTH 6 0
BBX 5 13 0 0
BITMAP
70
70
70
00
f0
70
70
70
70
70
70
70
f8
ENDCHAR
STARTCHAR j
ENCODING 106
SWIDTH 355 0
DWIDTH 6 0
BBX 6 16 0 -3
BITMAP
1c
1c
1c
00
3c
1c
1c
1c
1c
1c
1c
1c
1c
9c
9c
f8
ENDCHAR
STARTCHAR k
ENCODING 107
SWIDTH 654 0
DWIDTH 11 0
BBX 11 13 1 0
BITMAP
f000
7000
7000
7000
71c0
7180
7300
7400
7e00
7f00
7780
73c0
f9e0
ENDCHAR
STARTCHAR l
ENCODING 108
SWIDTH 325 0
DWIDTH 6 0
BBX 5 13 0 0
BITMAP
f0
70
70
70
70
70
70
70
70
70
70
70
f8
ENDCHAR
STARTCHAR m
ENCODING 109
SWIDTH 967 0
DWIDTH 17 0
BBX 17 9 0 0
BITMAP
f79e00
7fff00
79e700
71c700
71c700
71c700
71c700
71c700
fbef80
ENDCHAR
STARTCHAR n
ENCODING 110
SWIDTH 654 0
DWIDTH 12 0
BBX 11 9 1 0
BITMAP
f380
77c0
79c0
71c0
71c0
71c0
71c0
71c0
fbe0
ENDCHAR
STARTCHAR o
ENCODING 111
SWIDTH 617 0
DWIDTH 11 0
BBX 10 9 1 0
BITMAP
1e00
7380
e1c0
e1c0
e1c0
e1c0
e1c0
7380
1e00
ENDCHAR
STARTCHAR p
ENCODING 112
SWIDTH 652 0
DWIDTH 12 0
BBX 11 12 0 -3
BITMAP
f380
77c0
78e0
70e0
70e0
70e0
70e0
71c0
7f80
7000
7000
f800
ENDCHAR
STARTCHAR q
ENCODING 113
SWIDTH 640 0
DWIDTH 11 0
BBX 11 12 1 -3
BITMAP
3fc0
71c0
e1c0
e1c0
e1c0
e1c0
e3c0
7dc0
39c0
01c0
01c0
03e0
ENDCHAR
STARTCHAR r
ENCODING 114
SWIDTH 462 0
DWIDTH 8 0
BBX 8 9 0 0
BITMAP
f3
7f
79
70
70
70
70
70
fc
ENDCHAR
STARTCHAR s
ENCODING 115
SWIDTH 525 0
DWIDTH 9 0
BBX 8 9 1 0
BITMAP
7e
e2
e2
fc
7e
3f
87
87
fc
ENDCHAR
STARTCHAR t
ENCODING 116
SWIDTH 389 0
DWIDTH 7 0
BBX 6 12 1 0
BITMAP
30
70
70
fc
70
70
70
70
70
70
70
3c
ENDCHAR
STARTCHAR u
ENCODING 117
SWIDTH 654 0
DWIDTH 12 0
BBX 11 9 0 0
BITMAP
f3c0
71c0
71c0
71c0
71c0
71c0
73c0
7dc0
39e0
ENDCHAR
STARTCHAR v
ENCODING 118
SWIDTH 657 0
DWIDTH 12 0
BBX 12 9 0 0
BITMAP
f8f0
7860
3840
3c80
1c80
1f00
0f00
0e00
0600
ENDCHAR
STARTCHAR w
ENCODING 119
SWIDTH 880 0
DWIDTH 16 0
BBX 16 9 0 0
BITMAP
f8cf
70c2
79e4
39e4
3af8
1e78
1c78
1c30
0830
ENDCHAR
STARTCHAR x
ENCODING 120
SWIDTH 608 0
DWIDTH 11 0
BBX 11 9 0 0
BITMAP
fde0
7880
3d00
1e00
0f00
1f00
3780
63c0
f3e0
ENDCHAR
STARTCHAR y
ENCODING 121
SWIDTH 654 0
DWIDTH 12 0
BBX 12 12 0 -3
BITMAP
fcf0
7860
3840
3c80
1c80
1f00
0f00
0e00
0400
0400
1800
3800
ENDCHAR
STARTCHAR z
ENCODING 122
SWIDTH 584 0
DWIDTH 11 0
BBX 9 9 1 0
BITMAP
ff80
c780
8f00
1e00
3c00
3c00
7800
f080
ff80
ENDCHAR
STARTCHAR braceleft
ENCODING 123
SWIDTH 366 0
DWIDTH 7 0
BBX 5 16 1 -3
BITMAP
38
70
70
70
70
70
70
e0
60
70
70
70
70
70
70
38
ENDCHAR
STARTCHAR bar
ENCODING 124
SWIDTH 259 0
DWIDTH 5 0
BBX 1 16 2 -3
BITMAP
80
80
80
80
80
80
80
80
80
80
80
80
80
80
80
80
ENDCHAR
STARTCHAR braceright
ENCODING 125
SWIDTH 366 0
DWIDTH 7 0
BBX 5 16 1 -3
BITMAP
e0
70
70
70
70
70
70
38
30
70
70
70
70
70
70
e0
ENDCHAR
STARTCHAR asciitilde
ENCODING 126
SWIDTH 623 0
DWIDTH 11 0
BBX 10 4 1 3
BITMAP
7040
8840
8440
8380
ENDCHAR
STARTCHAR nobreakspace
ENCODING 160
SWIDTH 333 0
DWIDTH 6 0
BBX 1 1 0 0
BITMAP
00
ENDCHAR
STARTCHAR Aogonek
ENCODING 161
SWIDTH 795 0
DWIDTH 14 0
BBX 14 16 0 -3
BITMAP
0300
0300
0780
0780
0fc0
09c0
09e0
10e0
1ff0
2070
2038
4038
e07c
0200
0400
0700
ENDCHAR
STARTCHAR breve
ENCODING 162
SWIDTH 617 0
DWIDTH 11 0
BBX 6 3 3 10
BITMAP
84
78
78
ENDCHAR
STARTCHAR Lstroke
ENCODING 163
SWIDTH 584 0
DWIDTH 11 0
BBX 11 13 0 0
BITMAP
fc00
3800
3800
3800
3a00
3c00
7800
b800
3800
3800
3820
3820
ffe0
ENDCHAR
STARTCHAR currency
ENCODING 164
SWIDTH 623 0
DWIDTH 11 0
BBX 12 11 0 1
BITMAP
8010
4020
3fc0
30c0
2040
2040
2040
30c0
3fc0
4020
8010
ENDCHAR
STARTCHAR Lcaron
ENCODING 165
SWIDTH 584 0
DWIDTH 11 0
BBX 10 14 0 0
BITMAP
0380
fb80
7180
7180
7300
7000
7000
7000
7000
7000
7000
7040
7040
ffc0
ENDCHAR
STARTCHAR Sacute
ENCODING 166
SWIDTH 556 0
DWIDTH 10 0
BBX 9 17 1 0
BITMAP
0600
0800
1000
0000
3f00
7100
e100
e000
f000
7c00
3f00
0f80
0780
0380
8380
c700
fe00
ENDCHAR
STARTCHAR section
ENCODING 167
SWIDTH 623 0
DWIDTH 11 0
BBX 8 16 2 -3
BITMAP
3e
e2
e2
e0
f8
7e
5f
c7
e3
fb
7e
3f
0f
87
8f
fc
ENDCHAR
STARTCHAR diaeresis
ENCODING 168
SWIDTH 617 0
DWIDTH 11 0
BBX 5 2 3 11
BITMAP
d8
d8
ENDCHAR
STARTCHAR Scaron
ENCODING 169
SWIDTH 556 0
DWIDTH 10 0
BBX 9 17 1 0
BITMAP
6600
3c00
1800
0000
3f00
7100
e100
e000
f000
7c00
3f00
0f80
0780
0380
8380
c700
fe00
ENDCHAR
STARTCHAR Scedilla
ENCODING 170
SWIDTH 556 0
DWIDTH 10 0
BBX 9 16 1 -3
BITMAP
3f00
7100
e100
e000
f000
7c00
3f00
0f80
0780
0380
8380
c700
fe00
1800
0c00
1c00
ENDCHAR
STARTCHAR Tcaron
ENCODING 171
SWIDTH 714 0
DWIDTH 13 0
BBX 13 17 0 0
BITMAP
0cc0
0780
0300
0000
fff8
c708
8708
0700
0700
0700
0700
0700
0700
0700
0700
0700
1fc0
ENDCHAR
STARTCHAR Zacute
ENCODING 172
SWIDTH 639 0
DWIDTH 11 0
BBX 10 17 1 0
BITMAP
0180
0200
0400
0000
7fc0
43c0
4380
0780
0f00
0e00
1e00
1c00
3c00
7800
7040
f0c0
ffc0
ENDCHAR
STARTCHAR hyphen
ENCODING 173
SWIDTH 289 0
DWIDTH 5 0
BBX 4 2 1 4
BITMAP
f0
f0
ENDCHAR
STARTCHAR Zcaron
ENCODING 174
SWIDTH 639 0
DWIDTH 11 0
BBX 10 17 1 0
BITMAP
1980
0f00
0600
0000
7fc0
43c0
4380
0780
0f00
0e00
1e00
1c00
3c00
7800
7040
f0c0
ffc0
ENDCHAR
STARTCHAR Zabovedot
ENCODING 175
SWIDTH 639 0
DWIDTH 11 0
BBX 10 17 1 0
BITMAP
0600
0600
0600
0000
7fc0
43c0
4380
0780
0f00
0e00
1e00
1c00
3c00
7800
7040
f0c0
ffc0
ENDCHAR
STARTCHAR degree
ENCODING 176
SWIDTH 259 0
DWIDTH 5 0
BBX 3 3 1 10
BITMAP
e0
a0
e0
ENDCHAR
STARTCHAR aogonek
ENCODING 177
SWIDTH 556 0
DWIDTH 10 0
BBX 10 12 0 -3
BITMAP
3e00
6380
4380
0380
7f80
f380
e380
e380
7dc0
0800
1000
1c00
ENDCHAR
STARTCHAR ogonek
ENCODING 178
SWIDTH 617 0
DWIDTH 11 0
BBX 3 3 4 -3
BITMAP
40
80
e0
ENDCHAR
STARTCHAR lstroke
ENCODING 179
SWIDTH 325 0
DWIDTH 6 0
BBX 7 13 0 0
BITMAP
f8
38
38
38
38
3e
38
f8
38
38
38
38
fe
ENDCHAR
STARTCHAR acute
ENCODING 180
SWIDTH 617 0
DWIDTH 11 0
BBX 4 3 4 10
BITMAP
30
40
80
ENDCHAR
STARTCHAR lcaron
ENCODING 181
SWIDTH 500 0
DWIDTH 9 0
BBX 8 14 0 0
BITMAP
07
f7
73
73
76
70
70
70
70
70
70
70
70
f8
ENDCHAR
STARTCHAR sacute
ENCODING 182
SWIDTH 525 0
DWIDTH 9 0
BBX 8 13 1 0
BITMAP
06
08
10
00
7e
e2
e2
fc
7e
3f
87
87
fc
ENDCHAR
STARTCHAR caron
ENCODING 183
SWIDTH 617 0
DWIDTH 11 0
BBX 6 3 3 10
BITMAP
cc
78
30
ENDCHAR
STARTCHAR cedilla
ENCODING 184
SWIDTH 617 0
DWIDTH 11 0
BBX 3 3 4 -3
BITMAP
c0
60
e0
ENDCHAR
STARTCHAR scaron
ENCODING 185
SWIDTH 525 0
DWIDTH 9 0
BBX 8 13 1 0
BITMAP
66
3c
18
00
7e
e2
e2
fc
7e
3f
87
87
fc
ENDCHAR
STARTCHAR scedilla
ENCODING 186
SWIDTH 525 0
DWIDTH 9 0
BBX 8 12 1 -3
BITMAP
7e
e2
e2
fc
7e
3f
87
87
fc
30
18
38
ENDCHAR
STARTCHAR tcaron
ENCODING 187
SWIDTH 500 0
DWIDTH 9 0
BBX 8 15 1 0
BITMAP
07
07
03
33
76
70
fc
70
70
70
70
70
70
70
3c
ENDCHAR
STARTCHAR zacute
ENCODING 188
SWIDTH 584 0
DWIDTH 11 0
BBX 9 13 1 0
BITMAP
0300
0400
0800
0000
ff80
c780
8f00
1e00
3c00
3c00
7800
f080
ff80
ENDCHAR
STARTCHAR doubleacute
ENCODING 189
SWIDTH 617 0
DWIDTH 11 0
BBX 6 3 3 10
BITMAP
2c
58
b0
ENDCHAR
STARTCHAR zcaron
ENCODING 190
SWIDTH 584 0
DWIDTH 11 0
BBX 9 13 1 0
BITMAP
3300
1e00
0c00
0000
ff80
c780
8f00
1e00
3c00
3c00
7800
f080
ff80
ENDCHAR
STARTCHAR zabovedot
ENCODING 191
SWIDTH 584 0
DWIDTH 11 0
BBX 9 13 1 0
BITMAP
0c00
0c00
0c00
0000
ff80
c780
8f00
1e00
3c00
3c00
7800
f080
ff80
ENDCHAR
STARTCHAR Racute
ENCODING 192
SWIDTH 720 0
DWIDTH 13 0
BBX 12 17 1 0
BITMAP
0300
0400
0800
0000
ff00
7180
71c0
71c0
71c0
7380
7f00
7700
7780
73c0
71c0
71e0
f8f0
ENDCHAR
STARTCHAR Aacute
ENCODING 193
SWIDTH 795 0
DWIDTH 14 0
BBX 14 17 0 0
BITMAP
00c0
0100
0200
0000
0300
0300
0780
0780
0fc0
09c0
09e0
10e0
1ff0
2070
2038
4038
e07c
ENDCHAR
STARTCHAR Acircumflex
ENCODING 194
SWIDTH 795 0
DWIDTH 14 0
BBX 14 17 0 0
BITMAP
0300
0780
0cc0
0000
0300
0300
0780
0780
0fc0
09c0
09e0
10e0
1ff0
2070
2038
4038
e07c
ENDCHAR
STARTCHAR Abreve
ENCODING 195
SWIDTH 795 0
DWIDTH 14 0
BBX 14 17 0 0
BITMAP
0840
0780
0780
0000
0300
0300
0780
0780
0fc0
09c0
09e0
10e0
1ff0
2070
2038
4038
e07c
ENDCHAR
STARTCHAR Adiaeresis
ENCODING 196
SWIDTH 795 0
DWIDTH 14 0
BBX 14 16 0 0
BITMAP
06c0
06c0
0000
0300
0300
0780
0780
0fc0
09c0
09e0
10e0
1ff0
2070
2038
4038
e07c
ENDCHAR
STARTCHAR Lacute
ENCODING 197
SWIDTH 584 0
DWIDTH 11 0
BBX 10 17 0 0
BITMAP
0c00
1000
2000
0000
f800
7000
7000
7000
7000
7000
7000
7000
7000
7000
7040
7040
ffc0
ENDCHAR
STARTCHAR Cacute
ENCODING 198
SWIDTH 711 0
DWIDTH 13 0
BBX 11 17 1 0
BITMAP
0180
0200
0400
0000
0fe0
3860
7020
7000
e000
e000
e000
e000
e000
7000
7000
3820
0fc0
ENDCHAR
STARTCHAR Ccedilla
ENCODING 199
SWIDTH 711 0
DWIDTH 13 0
BBX 11 16 1 -3
BITMAP
0fe0
3860
7020
7000
e000
e000
e000
e000
e000
7000
7000
3820
0fc0
0400
0600
0e00
ENDCHAR
STARTCHAR Ccaron
ENCODING 200
SWIDTH 711 0
DWIDTH 13 0
BBX 11 17 1 0
BITMAP
1980
0f00
0600
0000
0fe0
3860
7020
7000
e000
e000
e000
e000
e000
7000
7000
3820
0fc0
ENDCHAR
STARTCHAR Eacute
ENCODING 201
SWIDTH 601 0
DWIDTH 11 0
BBX 10 17 0 0
BITMAP
0300
0400
0800
0000
ff80
7080
7000
7000
7000
7100
7f00
7100
7000
7000
7040
70c0
ffc0
ENDCHAR
STARTCHAR Eogonek
ENCODING 202
SWIDTH 601 0
DWIDTH 11 0
BBX 10 16 0 -3
BITMAP
ff80
7080
7000
7000
7000
7100
7f00
7100
7000
7000
7040
70c0
ffc0
0800
1000
1c00
ENDCHAR
STARTCHAR Ediaeresis
ENCODING 203
SWIDTH 601 0
DWIDTH 11 0
BBX 10 16 0 0
BITMAP
1b00
1b00
0000
ff80
7080
7000
7000
7000
7100
7f00
7100
7000
7000
7040
70c0
ffc0
ENDCHAR
STARTCHAR Ecaron
ENCODING 204
SWIDTH 601 0
DWIDTH 11 0
BBX 10 17 0 0
BITMAP
3300
1e00
0c00
0000
ff80
7080
7000
7000
7000
7100
7f00
7100
7000
7000
7040
70c0
ffc0
ENDCHAR
STARTCHAR Iacute
ENCODING 205
SWIDTH 349 0
DWIDTH 6 0
BBX 5 17 1 0
BITMAP
18
20
40
00
f8
70
70
70
70
70
70
70
70
70
70
70
f8
ENDCHAR
STARTCHAR Icircumflex
ENCODING 206
SWIDTH 349 0
DWIDTH 6 0
BBX 6 17 2 0
BITMAP
30
78
cc
00
7c
38
38
38
38
38
38
38
38
38
38
38
7c
ENDCHAR
STARTCHAR Dcaron
ENCODING 207
SWIDTH 794 0
DWIDTH 14 0
BBX 13 17 0 0
BITMAP
1980
0f00
0600
0000
ff80
70e0
7070
7038
7038
7038
7038
7038
7038
7030
7070
70e0
ff80
ENDCHAR
STARTCHAR Dstroke
ENCODING 208
SWIDTH 794 0
DWIDTH 14 0
BBX 14 13 0 0
BITMAP
ffc0
3870
3838
381c
381c
381c
ff1c
381c
381c
3818
3838
3870
ffc0
ENDCHAR
STARTCHAR Nacute
ENCODING 209
SWIDTH 788 0
DWIDTH 14 0
BBX 12 17 1 0
BITMAP
0180
0200
0400
0000
f070
7020
7820
7c20
5c20
5e20
4f20
47a0
43a0
43e0
41e0
40e0
e060
ENDCHAR
STARTCHAR Ncaron
ENCODING 210
SWIDTH 788 0
DWIDTH 14 0
BBX 12 17 1 0
BITMAP
1980
0f00
0600
0000
f070
7020
7820
7c20
5c20
5e20
4f20
47a0
43a0
43e0
41e0
40e0
e060
ENDCHAR
STARTCHAR Oacute
ENCODING 211
SWIDTH 810 0
DWIDTH 15 0
BBX 13 17 1 0
BITMAP
0180
0200
0400
0000
0f80
38e0
7070
6030
e038
e038
e038
e038
e038
6030
7070
38e0
0f80
ENDCHAR
STARTCHAR Ocircumflex
ENCODING 212
SWIDTH 810 0
DWIDTH 15 0
BBX 13 17 1 0
BITMAP
0600
0f00
1980
0000
0f80
38e0
7070
6030
e038
e038
e038
e038
e038
6030
7070
38e0
0f80
ENDCHAR
STARTCHAR Odoubleacute
ENCODING 213
SWIDTH 810 0
DWIDTH 15 0
BBX 13 17 1 0
BITMAP
0160
02c0
0580
0000
0f80
38e0
7070
6030
e038
e038
e038
e038
e038
6030
7070
38e0
0f80
ENDCHAR
STARTCHAR Odiaeresis
ENCODING 214
SWIDTH 810 0
DWIDTH 15 0
BBX 13 16 1 0
BITMAP
0d80
0d80
0000
0f80
38e0
7070
6030
e038
e038
e038
e038
e038
6030
7070
38e0
0f80
ENDCHAR
STARTCHAR multiply
ENCODING 215
SWIDTH 623 0
DWIDTH 11 0
BBX 10 11 1 0
BITMAP
8040
40c0
2100
1300
1e00
0c00
1e00
3200
2100
c080
8040
ENDCHAR
STARTCHAR Rcaron
ENCODING 216
SWIDTH 720 0
DWIDTH 13 0
BBX 12 17 1 0
BITMAP
3300
1e00
0c00
0000
ff00
7180
71c0
71c0
71c0
7380
7f00
7700
7780
73c0
71c0
71e0
f8f0
ENDCHAR
STARTCHAR Uring
ENCODING 217
SWIDTH 747 0
DWIDTH 13 0
BBX 12 17 1 0
BITMAP
0e00
0a00
0e00
0000
f870
7020
7020
7020
7020
7020
7020
7020
7020
7020
7020
3840
1f80
ENDCHAR
STARTCHAR Uacute
ENCODING 218
SWIDTH 747 0
DWIDTH 13 0
BBX 12 17 1 0
BITMAP
0180
0200
0400
0000
f870
7020
7020
7020
7020
7020
7020
7020
7020
7020
7020
3840
1f80
ENDCHAR
STARTCHAR Udoubleacute
ENCODING 219
SWIDTH 747 0
DWIDTH 13 0
BBX 12 17 1 0
BITMAP
02c0
0580
0b00
0000
f870
7020
7020
7020
7020
7020
7020
7020
7020
7020
7020
3840
1f80
ENDCHAR
STARTCHAR Udiaeresis
ENCODING 220
SWIDTH 747 0
DWIDTH 13 0
BBX 12 16 1 0
BITMAP
1b00
1b00
0000
f870
7020
7020
7020
7020
7020
7020
7020
7020
7020
7020
3840
1f80
ENDCHAR
STARTCHAR Yacute
ENCODING 221
SWIDTH 717 0
DWIDTH 13 0
BBX 13 17 0 0
BITMAP
0180
0200
0400
0000
fc38
7830
3820
3c40
1e40
0e80
0f00
0700
0700
0700
0700
0700
0f80
ENDCHAR
STARTCHAR Tcedilla
ENCODING 222
SWIDTH 714 0
DWIDTH 13 0
BBX 13 16 0 -3
BITMAP
fff8
c708
8708
0700
0700
0700
0700
0700
0700
0700
0700
0700
1fc0
0600
0300
0700
ENDCHAR
STARTCHAR ssharp
ENCODING 223
SWIDTH 700 0
DWIDTH 13 0
BBX 10 13 1 0
BITMAP
3f00
7380
7380
7300
7400
7c00
7e00
7f00
7780
73c0
71c0
75c0
f780
ENDCHAR
STARTCHAR racute
ENCODING 224
SWIDTH 462 0
DWIDTH 8 0
BBX 8 13 0 0
BITMAP
06
08
10
00
f3
7f
79
70
70
70
70
70
fc
ENDCHAR
STARTCHAR aacute
ENCODING 225
SWIDTH 556 0
DWIDTH 10 0
BBX 10 13 0 0
BITMAP
0300
0400
0800
0000
3e00
6380
4380
0380
7f80
f380
e380
e380
7dc0
ENDCHAR
STARTCHAR acircumflex
ENCODING 226
SWIDTH 556 0
DWIDTH 10 0
BBX 10 13 0 0
BITMAP
0c00
1e00
3300
0000
3e00
6380
4380
0380
7f80
f380
e380
e380
7dc0
ENDCHAR
STARTCHAR abreve
ENCODING 227
SWIDTH 556 0
DWIDTH 10 0
BBX 10 13 0 0
BITMAP
2100
1e00
1e00
0000
3e00
6380
4380
0380
7f80
f380
e380
e380
7dc0
ENDCHAR
STARTCHAR adiaeresis
ENCODING 228
SWIDTH 556 0
DWIDTH 10 0
BBX 10 12 0 0
BITMAP
3600
3600
0000
3e00
6380
4380
0380
7f80
f380
e380
e380
7dc0
ENDCHAR
STARTCHAR lacute
ENCODING 229
SWIDTH 325 0
DWIDTH 6 0
BBX 5 17 0 0
BITMAP
18
20
40
00
f0
70
70
70
70
70
70
70
70
70
70
70
f8
ENDCHAR
STARTCHAR cacute
ENCODING 230
SWIDTH 541 0
DWIDTH 10 0
BBX 8 13 1 0
BITMAP
03
04
08
00
3f
71
e1
e0
e0
e0
e0
70
3f
ENDCHAR
STARTCHAR ccedilla
ENCODING 231
SWIDTH 541 0
DWIDTH 10 0
BBX 8 12 1 -3
BITMAP
3f
71
e1
e0
e0
e0
e0
70
3f
08
0c
1c
ENDCHAR
STARTCHAR ccaron
ENCODING 232
SWIDTH 541 0
DWIDTH 10 0
BBX 8 13 1 0
BITMAP
33
1e
0c
00
3f
71
e1
e0
e0
e0
e0
70
3f
ENDCHAR
STARTCHAR eacute
ENCODING 233
SWIDTH 568 0
DWIDTH 10 0
BBX 9 13 0 0
BITMAP
0600
0800
1000
0000
3e00
6300
e380
e380
ff80
e000
e000
7080
1f80
ENDCHAR
STARTCHAR eogonek
ENCODING 234
SWIDTH 568 0
DWIDTH 10 0
BBX 9 12 0 -3
BITMAP
3e00
6300
e380
e380
ff80
e000
e000
7080
1f80
0800
1000
1c00
ENDCHAR
STARTCHAR ediaeresis
ENCODING 235
SWIDTH 568 0
DWIDTH 10 0
BBX 9 12 0 0
BITMAP
3600
3600
0000
3e00
6300
e380
e380
ff80
e000
e000
7080
1f80
ENDCHAR
STARTCHAR ecaron
ENCODING 236
SWIDTH 568 0
DWIDTH 10 0
BBX 9 13 0 0
BITMAP
3300
1e00
0c00
0000
3e00
6300
e380
e380
ff80
e000
e000
7080
1f80
ENDCHAR
STARTCHAR iacute
ENCODING 237
SWIDTH 325 0
DWIDTH 6 0
BBX 5 13 0 0
BITMAP
18
20
40
00
f0
70
70
70
70
70
70
70
f8
ENDCHAR
STARTCHAR icircumflex
ENCODING 238
SWIDTH 325 0
DWIDTH 6 0
BBX 6 13 1 0
BITMAP
30
78
cc
00
78
38
38
38
38
38
38
38
7c
ENDCHAR
STARTCHAR dcaron
ENCODING 239
SWIDTH 833 0
DWIDTH 15 0
BBX 14 14 1 0
BITMAP
001c
03dc
01cc
01cc
01d8
3fc0
71c0
e1c0
e1c0
e1c0
e1c0
e3c0
7dc0
39e0
ENDCHAR
STARTCHAR dstroke
ENCODING 240
SWIDTH 833 0
DWIDTH 15 0
BBX 14 13 1 0
BITMAP
03c0
01c0
1ffc
01c0
3fc0
71c0
e1c0
e1c0
e1c0
e1c0
e3c0
7dc0
39e0
ENDCHAR
STARTCHAR nacute
ENCODING 241
SWIDTH 654 0
DWIDTH 12 0
BBX 11 13 1 0
BITMAP
0300
0400
0800
0000
f380
77c0
79c0
71c0
71c0
71c0
71c0
71c0
fbe0
ENDCHAR
STARTCHAR ncaron
ENCODING 242
SWIDTH 654 0
DWIDTH 12 0
BBX 11 13 1 0
BITMAP
3300
1e00
0c00
0000
f380
77c0
79c0
71c0
71c0
71c0
71c0
71c0
fbe0
ENDCHAR
STARTCHAR oacute
ENCODING 243
SWIDTH 617 0
DWIDTH 11 0
BBX 10 13 1 0
BITMAP
0300
0400
0800
0000
1e00
7380
e1c0
e1c0
e1c0
e1c0
e1c0
7380
1e00
ENDCHAR
STARTCHAR ocircumflex
ENCODING 244
SWIDTH 617 0
DWIDTH 11 0
BBX 10 13 1 0
BITMAP
0c00
1e00
3300
0000
1e00
7380
e1c0
e1c0
e1c0
e1c0
e1c0
7380
1e00
ENDCHAR
STARTCHAR odoubleacute
ENCODING 245
SWIDTH 617 0
DWIDTH 11 0
BBX 10 13 1 0
BITMAP
0580
0b00
1600
0000
1e00
7380
e1c0
e1c0
e1c0
e1c0
e1c0
7380
1e00
ENDCHAR
STARTCHAR odiaeresis
ENCODING 246
SWIDTH 617 0
DWIDTH 11 0
BBX 10 12 1 0
BITMAP
3600
3600
0000
1e00
7380
e1c0
e1c0
e1c0
e1c0
e1c0
7380
1e00
ENDCHAR
STARTCHAR division
ENCODING 247
SWIDTH 623 0
DWIDTH 11 0
BBX 10 9 1 0
BITMAP
0c00
0c00
0000
0000
ffc0
0000
0000
0c00
0c00
ENDCHAR
STARTCHAR rcaron
ENCODING 248
SWIDTH 462 0
DWIDTH 8 0
BBX 8 13 0 0
BITMAP
66
3c
18
00
f3
7f
79
70
70
70
70
70
fc
ENDCHAR
STARTCHAR uring
ENCODING 249
SWIDTH 654 0
DWIDTH 12 0
BBX 11 13 0 0
BITMAP
1c00
1400
1c00
0000
f3c0
71c0
71c0
71c0
71c0
71c0
73c0
7dc0
39e0
ENDCHAR
STARTCHAR uacute
ENCODING 250
SWIDTH 654 0
DWIDTH 12 0
BBX 11 13 0 0
BITMAP
0300
0400
0800
0000
f3c0
71c0
71c0
71c0
71c0
71c0
73c0
7dc0
39e0
ENDCHAR
STARTCHAR udoubleacute
ENCODING 251
SWIDTH 654 0
DWIDTH 12 0
BBX 11 13 0 0
BITMAP
0580
0b00
1600
0000
f3c0
71c0
71c0
71c0
71c0
71c0
73c0
7dc0
39e0
ENDCHAR
STARTCHAR udiaeresis
ENCODING 252
SWIDTH 654 0
DWIDTH 12 0
BBX 11 12 0 0
BITMAP
1b00
1b00
0000
f3c0
71c0
71c0
71c0
71c0
71c0
73c0
7dc0
39e0
ENDCHAR
STARTCHAR yacute
ENCODING 253
SWIDTH 654 0
DWIDTH 12 0
BBX 12 16 0 -3
BITMAP
0180
0200
0400
0000
fcf0
7860
3840
3c80
1c80
1f00
0f00
0e00
0400
0400
1800
3800
ENDCHAR
STARTCHAR tcedilla
ENCODING 254
SWIDTH 389 0
DWIDTH 7 0
BBX 6 15 1 -3
BITMAP
30
70
70
fc
70
70
70
70
70
70
70
3c
60
30
70
ENDCHAR
STARTCHAR abovedot
ENCODING 255
SWIDTH 617 0
DWIDTH 11 0
BBX 2 3 5 10
BITMAP
c0
c0
c0
ENDCHAR
ENDFONT
